<svg width="231" height="197" viewBox="0 0 231 197" fill="none" xmlns="http://www.w3.org/2000/svg">
<path d="M212.17 6.17C202.26 -9.34 151.84 10.85 116.28 30.47C103.02 37.79 77.56 54.68 71.79 58.6C43.32 77.97 15.63 103.02 4.82 122.39C2.01 127.43 -1.08 135.57 1.87 140.23C1.93 140.33 2.99 141.91 5.28 145.48C10.12 153.04 15.76 161.73 17.4 164.28C17.81 163.27 23.66 145.58 33.52 134.95C50.49 116.67 78.21 92.9 109.87 73.74C141.53 54.59 156.35 45.5 180.39 37.02C193.31 32.47 222.17 22.83 230.23 34.14C223.7 24.12 216.57 13.05 212.17 6.16001V6.17Z" fill="url(#paint0_linear_1_7)"/>
<path d="M123.6 196.93C172.577 196.93 212.28 157.227 212.28 108.25C212.28 59.2734 172.577 19.57 123.6 19.57C74.6234 19.57 34.92 59.2734 34.92 108.25C34.92 157.227 74.6234 196.93 123.6 196.93Z" fill="url(#paint1_radial_1_7)"/>
<path d="M142.01 21.64C140.48 21.48 140.36 22.09 141.11 24.39C143.49 31.73 133.29 33.49 127.86 37.12C124.66 38.48 120.32 42.79 117.01 39.97C115.74 37.96 116.4 35.29 115.06 33.11C114.13 31.37 111.99 30.57 110.09 30.81C106.24 31.33 105.29 35.87 102.36 37.57C94.54 38.61 93.39 56.43 88.08 53.59C85.34 52.12 79.32 57.46 78.71 59.11C77.27 63.05 85.15 70.4 85.6 76.68C85.31 80.6 80.57 82.15 79.29 85.78C75.55 92.25 76.76 104.24 86.36 104.27C89.41 104.28 90.1 98.53 92.22 100.11C97.22 103.83 101.3 107.43 105.62 101.97C107.76 100.01 108.57 95.48 111.39 95.39C112.78 95.34 113.14 96.96 113.9 98.19C118.71 105.84 132.28 97.44 136.7 104.8C139.13 108.84 140.26 113.82 145.85 110.69C150.58 108.5 151.78 117.76 153.56 120.26C155.73 123.3 160.33 124.69 166.04 128.48C167.67 129.56 171.83 132.28 172.54 132.86C174.64 134.59 178.42 138.35 174.47 143.59C168.58 149.93 167 161.24 178.3 157.77C182.09 156.61 187.08 158.65 187.09 162.16C187.09 164.96 186.15 171.75 191.76 165.01C216.68 135.04 217.24 98.89 203.04 67.25C192.03 42.72 160.46 23.61 142.02 21.62L142.01 21.64Z" fill="url(#paint2_linear_1_7)"/>
<path d="M203.83 69.14C191.59 89.01 166.92 110.85 144.45 126.48C110.73 149.94 71.26 168.75 49.26 172.75C34.31 175.47 24.19 175 20.34 169C20.16 168.69 5.36 145.68 2.37 140.98C4.56 143.02 6.27999 150.38 32.86 144.32C49.96 140.42 83.97 125.85 111.53 107.63C141.3 87.95 170.09 64.45 184.4 43.57C191.36 47.55 201.1 61.87 203.83 69.14Z" fill="url(#paint3_linear_1_7)"/>
<defs>
<linearGradient id="paint0_linear_1_7" x1="4.70842" y1="141.914" x2="218.062" y2="12.855" gradientUnits="userSpaceOnUse">
<stop stop-color="#2A522C"/>
<stop offset="1" stop-color="#6EB650"/>
</linearGradient>
<radialGradient id="paint1_radial_1_7" cx="0" cy="0" r="1" gradientUnits="userSpaceOnUse" gradientTransform="translate(123.574 108.29) rotate(-21.7) scale(88.68 88.68)">
<stop stop-color="#1782C5"/>
<stop offset="1" stop-color="#23366F"/>
</radialGradient>
<linearGradient id="paint2_linear_1_7" x1="77.3584" y1="139.087" x2="195.787" y2="73.3954" gradientUnits="userSpaceOnUse">
<stop stop-color="#FED20B"/>
<stop offset="0.32" stop-color="#FDCF0B"/>
<stop offset="0.49" stop-color="#FBC70D"/>
<stop offset="0.63" stop-color="#F7BA10"/>
<stop offset="0.75" stop-color="#F2A614"/>
<stop offset="0.85" stop-color="#EB8E1A"/>
<stop offset="0.95" stop-color="#E36F21"/>
<stop offset="1" stop-color="#DE5D26"/>
</linearGradient>
<linearGradient id="paint3_linear_1_7" x1="18.2277" y1="170.102" x2="192.66" y2="55.4008" gradientUnits="userSpaceOnUse">
<stop stop-color="#6EB650"/>
<stop offset="0.18" stop-color="#6AB14E"/>
<stop offset="0.39" stop-color="#60A249"/>
<stop offset="0.62" stop-color="#508A40"/>
<stop offset="0.86" stop-color="#3A6934"/>
<stop offset="1" stop-color="#2A522C"/>
</linearGradient>
</defs>
</svg>
