<?xml version="1.0" encoding="UTF-8"?>
<svg id="ARTE" xmlns="http://www.w3.org/2000/svg" xmlns:xlink="http://www.w3.org/1999/xlink" viewBox="0 0 984.13 530.22">
  <defs>
    <linearGradient id="Gradiente_sem_nome_6" data-name="Gradiente sem nome 6" x1="-425.33" y1="-1851.81" x2="-170.89" y2="-1851.81" gradientTransform="translate(1198.37 1244.22) rotate(-31.17) scale(.98 .77)" gradientUnits="userSpaceOnUse">
      <stop offset="0" stop-color="#2a522c"/>
      <stop offset="1" stop-color="#6eb650"/>
    </linearGradient>
    <radialGradient id="Gradiente_sem_nome_9" data-name="Gradiente sem nome 9" cx="-439.25" cy="-659.95" fx="-439.25" fy="-659.95" r="88.68" gradientTransform="translate(874.71 657.06) rotate(-21.7)" gradientUnits="userSpaceOnUse">
      <stop offset="0" stop-color="#1782c5"/>
      <stop offset="1" stop-color="#23366f"/>
    </radialGradient>
    <linearGradient id="Gradiente_sem_nome_27" data-name="Gradiente sem nome 27" x1="336.49" y1="695.89" x2="449.88" y2="621.84" gradientTransform="translate(-109.14 -481.23) rotate(4.13)" gradientUnits="userSpaceOnUse">
      <stop offset="0" stop-color="#fed20b"/>
      <stop offset=".32" stop-color="#fdcf0b"/>
      <stop offset=".49" stop-color="#fbc70d"/>
      <stop offset=".63" stop-color="#f7ba10"/>
      <stop offset=".75" stop-color="#f2a614"/>
      <stop offset=".85" stop-color="#eb8e1a"/>
      <stop offset=".95" stop-color="#e36f21"/>
      <stop offset="1" stop-color="#de5d26"/>
    </linearGradient>
    <linearGradient id="Gradiente_sem_nome_20" data-name="Gradiente sem nome 20" x1="-43.32" y1="-345.78" x2="141.03" y2="-443.75" gradientTransform="translate(192.54 608.35) rotate(-5.34)" gradientUnits="userSpaceOnUse">
      <stop offset="0" stop-color="#6eb650"/>
      <stop offset=".18" stop-color="#6ab14e"/>
      <stop offset=".39" stop-color="#60a249"/>
      <stop offset=".62" stop-color="#508a40"/>
      <stop offset=".86" stop-color="#3a6934"/>
      <stop offset="1" stop-color="#2a522c"/>
    </linearGradient>
    <linearGradient id="Gradiente_sem_nome_12" data-name="Gradiente sem nome 12" x1="332.14" y1="196.81" x2="426.85" y2="196.81" gradientUnits="userSpaceOnUse">
      <stop offset="0" stop-color="#222a50"/>
      <stop offset="1" stop-color="#222a50"/>
    </linearGradient>
    <linearGradient id="Gradiente_sem_nome_12-2" data-name="Gradiente sem nome 12" x1="447.1" y1="196.76" x2="537.03" y2="196.76" xlink:href="#Gradiente_sem_nome_12"/>
    <linearGradient id="Gradiente_sem_nome_12-3" data-name="Gradiente sem nome 12" x1="703.3" y1="196.76" x2="729.93" y2="196.76" xlink:href="#Gradiente_sem_nome_12"/>
    <linearGradient id="Gradiente_sem_nome_12-4" data-name="Gradiente sem nome 12" x1="761.98" y1="196.76" x2="888.6" y2="196.76" xlink:href="#Gradiente_sem_nome_12"/>
    <linearGradient id="Gradiente_sem_nome_13" data-name="Gradiente sem nome 13" x1="551.22" y1="196.81" x2="688.29" y2="196.81" gradientUnits="userSpaceOnUse">
      <stop offset="0" stop-color="#222a50"/>
      <stop offset="1" stop-color="#222a50"/>
    </linearGradient>
  </defs>
  <text transform="translate(333.23 333.34)" style="fill: #2a305a; font-size: 49.56px;"><tspan style="font-family: Lato-Regular, Lato;"><tspan x="0" y="0" style="letter-spacing: 0em;">S</tspan><tspan x="26.74" y="0" style="letter-spacing: 0em;">ec</tspan><tspan x="76.57" y="0" style="letter-spacing: -.02em;">r</tspan><tspan x="93.59" y="0" style="letter-spacing: 0em;">e</tspan><tspan x="119.59" y="0">taria de</tspan></tspan><tspan style="font-family: Lato-Bold, Lato; font-weight: 700;"><tspan x=".99" y="48.96">Assu</tspan><tspan x="106.92" y="48.96" style="letter-spacing: 0em;">n</tspan><tspan x="134.53" y="48.96" style="letter-spacing: 0em;">t</tspan><tspan x="152.77" y="48.96" style="letter-spacing: 0em;">os </tspan><tspan x="215.06" y="48.96" style="letter-spacing: 0em;">I</tspan><tspan x="229.38" y="48.96" style="letter-spacing: 0em;">n</tspan><tspan x="256.99" y="48.96" style="letter-spacing: 0em;">t</tspan><tspan x="275.23" y="48.96">ernacionais</tspan></tspan><tspan style="font-family: Lato-Bold, Lato; font-weight: 700;"><tspan x="-.99" y="97.93">e </tspan><tspan x="37.52" y="97.93" style="letter-spacing: 0em;">D</tspan><tspan x="74.88" y="97.93">ese</tspan><tspan x="149.59" y="97.93" style="letter-spacing: -.01em;">n</tspan><tspan x="176.98" y="97.93" style="letter-spacing: -.02em;">v</tspan><tspan x="202.35" y="97.93" style="letter-spacing: 0em;">olvime</tspan><tspan x="349.86" y="97.93" style="letter-spacing: 0em;">n</tspan><tspan x="377.47" y="97.93" style="letter-spacing: 0em;">t</tspan><tspan x="395.71" y="97.93">o</tspan></tspan></text>
  <g>
    <g>
      <path d="M311.17,104.17c-9.91-15.51-60.33,4.68-95.89,24.3-13.26,7.32-38.72,24.21-44.49,28.13-28.47,19.37-56.16,44.42-66.97,63.79-2.81,5.04-5.9,13.18-2.95,17.84.06.1,1.12,1.68,3.41,5.25,4.84,7.56,10.48,16.25,12.12,18.8.41-1.01,6.26-18.7,16.12-29.33,16.97-18.28,44.69-42.05,76.35-61.21,31.66-19.15,46.48-28.24,70.52-36.72,12.92-4.55,41.78-14.19,49.84-2.88-6.53-10.02-13.66-21.09-18.06-27.98Z" style="fill: url(#Gradiente_sem_nome_6);"/>
      <circle cx="222.6" cy="206.25" r="88.68" style="fill: url(#Gradiente_sem_nome_9);"/>
      <path d="M241.01,119.64c-1.53-.16-1.65.45-.9,2.75,2.38,7.34-7.82,9.1-13.25,12.73-3.2,1.36-7.54,5.67-10.85,2.85-1.27-2.01-.61-4.68-1.95-6.86-.93-1.74-3.07-2.54-4.97-2.3-3.85.52-4.8,5.06-7.73,6.76-7.82,1.04-8.97,18.86-14.28,16.02-2.74-1.47-8.76,3.87-9.37,5.52-1.44,3.94,6.44,11.29,6.89,17.57-.29,3.92-5.03,5.47-6.31,9.1-3.74,6.47-2.53,18.46,7.07,18.49,3.05.01,3.74-5.74,5.86-4.16,5,3.72,9.08,7.32,13.4,1.86,2.14-1.96,2.95-6.49,5.77-6.58,1.39-.05,1.75,1.57,2.51,2.8,4.81,7.65,18.38-.75,22.8,6.61,2.43,4.04,3.56,9.02,9.15,5.89,4.73-2.19,5.93,7.07,7.71,9.57,2.17,3.04,6.77,4.43,12.48,8.22,1.63,1.08,5.79,3.8,6.5,4.38,2.1,1.73,5.88,5.49,1.93,10.73-5.89,6.34-7.47,17.65,3.83,14.18,3.79-1.16,8.78.88,8.79,4.39,0,2.8-.94,9.59,4.67,2.85,24.92-29.97,25.48-66.12,11.28-97.76-11.01-24.53-42.58-43.64-61.02-45.63Z" style="fill: url(#Gradiente_sem_nome_27);"/>
      <path d="M302.83,167.14c-12.24,19.87-36.91,41.71-59.38,57.34-33.72,23.46-73.19,42.27-95.19,46.27-14.95,2.72-25.07,2.25-28.92-3.75-.18-.31-14.98-23.32-17.97-28.02,2.19,2.04,3.91,9.4,30.49,3.34,17.1-3.9,51.11-18.47,78.67-36.69,29.77-19.68,58.56-43.18,72.87-64.06,6.96,3.98,16.7,18.3,19.43,25.57Z" style="fill: url(#Gradiente_sem_nome_20);"/>
    </g>
    <g>
      <path d="M424.07,208.23c-1.85-4.1-4.31-7.56-7.37-10.39-3.06-2.83-6.54-5.17-10.44-7.03-3.9-1.85-7.89-3.48-11.96-4.88-4.07-1.4-8.05-2.72-11.96-3.95-3.9-1.24-7.39-2.64-10.44-4.2-3.06-1.56-5.51-3.45-7.37-5.66-1.85-2.21-2.78-4.98-2.78-8.3,0-2.6.45-4.99,1.37-7.17.91-2.18,2.29-4.05,4.15-5.61,1.85-1.56,4.13-2.78,6.83-3.66,2.7-.88,5.87-1.32,9.52-1.32,4.03,0,7.53.5,10.49,1.51,2.96,1.01,5.55,2.13,7.76,3.37,2.21,1.24,4.13,2.36,5.76,3.37.15.09.29.16.44.25l3.93,2.57c1.22.79,2.86.36,3.53-.93l1.59-3.03c.26-.38.51-.78.74-1.25l5.56-10.7c.52-1,.32-2.24-.53-2.98-4.66-4.07-10.18-7.29-16.55-9.65-7.03-2.6-14.71-3.9-23.03-3.9-7.35,0-13.89,1.14-19.62,3.42-5.73,2.28-10.56,5.3-14.49,9.08-3.94,3.77-6.93,8.1-8.98,12.98-2.05,4.88-3.07,9.89-3.07,15.03,0,6.44.93,11.86,2.78,16.25,1.85,4.39,4.31,8.05,7.37,10.98,3.06,2.93,6.54,5.3,10.44,7.13,3.9,1.82,7.87,3.38,11.91,4.69,4.03,1.3,8,2.51,11.91,3.61,3.9,1.11,7.38,2.46,10.44,4.05,3.06,1.6,5.51,3.56,7.37,5.9,1.85,2.34,2.78,5.37,2.78,9.08,0,6.64-2.05,11.73-6.15,15.27-4.1,3.55-9.89,5.32-17.37,5.32-4.88,0-9.06-.67-12.54-2-3.48-1.33-6.51-2.81-9.08-4.44-2.57-1.63-4.8-3.11-6.69-4.44-.2-.14-.4-.25-.6-.37l-4.46-3.33c-1.17-.86-2.83-.53-3.59.71l-2.53,4.16s-.03.03-.05.05l-6.6,10.92c-.59.98-.45,2.26.38,3.05,2.38,2.26,5.02,4.34,7.93,6.24,3.48,2.28,7.22,4.23,11.22,5.86,4,1.63,8.18,2.88,12.54,3.76,4.36.88,8.78,1.32,13.27,1.32,7.81,0,14.74-1.19,20.79-3.56,6.05-2.38,11.18-5.63,15.37-9.76,4.2-4.13,7.38-8.98,9.56-14.54,2.18-5.56,3.27-11.53,3.27-17.91,0-5.86-.93-10.83-2.78-14.93Z" style="fill: url(#Gradiente_sem_nome_12);"/>
      <path d="M537.03,128.32v15.38c0,1.58-1.28,2.86-2.86,2.86h-57.49c-1.58,0-2.86,1.28-2.86,2.86v33.82c0,1.58,1.28,2.86,2.86,2.86h44.08c1.58,0,2.86,1.28,2.86,2.86v14.69c0,1.58-1.28,2.86-2.86,2.86h-44.08c-1.58,0-2.86,1.28-2.86,2.86v34.61c0,1.58,1.28,2.86,2.86,2.86h57.49c1.58,0,2.86,1.28,2.86,2.86v15.48c0,1.58-1.28,2.86-2.86,2.86h-84.21c-1.58,0-2.86-1.28-2.86-2.86v-136.88c0-1.58,1.28-2.86,2.86-2.86h84.21c1.58,0,2.86,1.28,2.86,2.86Z" style="fill: url(#Gradiente_sem_nome_12-2);"/>
      <path d="M727.06,268.06h-20.9c-1.58,0-2.86-1.28-2.86-2.86v-136.88c0-1.58,1.28-2.86,2.86-2.86h20.9c1.58,0,2.86,1.28,2.86,2.86v136.88c0,1.58-1.28,2.86-2.86,2.86Z" style="fill: url(#Gradiente_sem_nome_12-3);"/>
      <path d="M888.6,196.76c0,10.45-1.74,20.05-5.23,28.8-3.49,8.74-8.38,16.27-14.69,22.58-6.31,6.31-13.91,11.21-22.78,14.69-8.88,3.49-18.71,5.23-29.49,5.23h-51.57c-1.58,0-2.86-1.28-2.86-2.86v-136.88c0-1.58,1.28-2.86,2.86-2.86h51.57c10.78,0,20.61,1.76,29.49,5.28,8.88,3.52,16.47,8.42,22.78,14.69,6.31,6.28,11.21,13.79,14.69,22.53,3.48,8.74,5.23,18.34,5.23,28.8ZM861.48,196.76c0-7.82-1.05-14.84-3.16-21.05-2.1-6.21-5.09-11.47-8.97-15.78-3.88-4.31-8.6-7.61-14.15-9.91-5.56-2.3-11.82-3.45-18.79-3.45h-24.85c-1.58,0-2.86,1.28-2.86,2.86v94.67c0,1.58,1.28,2.86,2.86,2.86h24.85c6.97,0,13.23-1.15,18.79-3.45,5.55-2.3,10.27-5.6,14.15-9.91,3.88-4.31,6.87-9.57,8.97-15.78,2.1-6.21,3.16-13.23,3.16-21.05Z" style="fill: url(#Gradiente_sem_nome_12-4);"/>
    </g>
    <path d="M688.14,265.1l-54.29-138.21c-.32-.83-1.12-1.37-2.01-1.37h-24.16c-.89,0-1.69.54-2.01,1.37l-54.29,138.21c-.56,1.42.49,2.95,2.01,2.95h14.41l-.06.05h8.09c.91,0,1.72-.56,2.03-1.41l1.59-4.33c.04-.11.1-.21.14-.32l10.13-27.66c.31-.85,1.12-1.42,2.03-1.42h56.02c.91,0,1.72.57,2.03,1.42l10.13,27.66c.08.2.18.38.26.57l1.48,4.02c.31.85,1.12,1.41,2.03,1.41h4.93c.06,0,.11.01.17.01h17.33c1.52,0,2.57-1.53,2.01-2.95ZM600.13,214.24c-1.5,0-2.55-1.5-2.03-2.91l16.28-44.31c.85-2.17,1.72-4.7,2.61-7.59.22-.72.44-1.46.67-2.21.61-2.05,3.49-2.07,4.14-.03.24.75.47,1.48.71,2.19.95,2.86,1.82,5.34,2.61,7.44l16.29,44.51c.52,1.41-.53,2.9-2.03,2.9h-39.25Z" style="fill: url(#Gradiente_sem_nome_13);"/>
  </g>
</svg>