<?xml version="1.0" encoding="UTF-8"?>
<svg id="ARTE" xmlns="http://www.w3.org/2000/svg" xmlns:xlink="http://www.w3.org/1999/xlink" viewBox="0 0 2958.38 352.26">
  <defs>
    <linearGradient id="Gradiente_sem_nome_6" data-name="Gradiente sem nome 6" x1="2774.66" y1="-3665.93" x2="3029.1" y2="-3665.93" gradientTransform="translate(-794.26 4051.72) rotate(-31.17) scale(.98 .77)" gradientUnits="userSpaceOnUse">
      <stop offset="0" stop-color="#2a522c"/>
      <stop offset="1" stop-color="#6eb650"/>
    </linearGradient>
    <radialGradient id="Gradiente_sem_nome_9" data-name="Gradiente sem nome 9" cx="1765.22" cy="-933.62" fx="1765.22" fy="-933.62" r="88.68" gradientTransform="translate(-1097.57 1704.29) rotate(-21.7)" gradientUnits="userSpaceOnUse">
      <stop offset="0" stop-color="#1782c5"/>
      <stop offset="1" stop-color="#23366f"/>
    </radialGradient>
    <linearGradient id="Gradiente_sem_nome_27" data-name="Gradiente sem nome 27" x1="-94.09" y1="816.27" x2="19.31" y2="742.21" gradientTransform="translate(303.83 -592.29) rotate(4.13)" gradientUnits="userSpaceOnUse">
      <stop offset="0" stop-color="#fed20b"/>
      <stop offset=".32" stop-color="#fdcf0b"/>
      <stop offset=".49" stop-color="#fbc70d"/>
      <stop offset=".63" stop-color="#f7ba10"/>
      <stop offset=".75" stop-color="#f2a614"/>
      <stop offset=".85" stop-color="#eb8e1a"/>
      <stop offset=".95" stop-color="#e36f21"/>
      <stop offset="1" stop-color="#de5d26"/>
    </linearGradient>
    <linearGradient id="Gradiente_sem_nome_20" data-name="Gradiente sem nome 20" x1="469.04" y1="-507.99" x2="653.39" y2="-605.96" gradientTransform="translate(-327.66 795.52) rotate(-5.34)" gradientUnits="userSpaceOnUse">
      <stop offset="0" stop-color="#6eb650"/>
      <stop offset=".18" stop-color="#6ab14e"/>
      <stop offset=".39" stop-color="#60a249"/>
      <stop offset=".62" stop-color="#508a40"/>
      <stop offset=".86" stop-color="#3a6934"/>
      <stop offset="1" stop-color="#2a522c"/>
    </linearGradient>
    <linearGradient id="Gradiente_sem_nome_12" data-name="Gradiente sem nome 12" x1="306.98" y1="174.79" x2="401.69" y2="174.79" gradientUnits="userSpaceOnUse">
      <stop offset="0" stop-color="#222a50"/>
      <stop offset="1" stop-color="#222a50"/>
    </linearGradient>
    <linearGradient id="Gradiente_sem_nome_12-2" data-name="Gradiente sem nome 12" x1="421.94" y1="174.74" x2="511.87" y2="174.74" xlink:href="#Gradiente_sem_nome_12"/>
    <linearGradient id="Gradiente_sem_nome_12-3" data-name="Gradiente sem nome 12" x1="678.14" y1="174.74" x2="704.77" y2="174.74" xlink:href="#Gradiente_sem_nome_12"/>
    <linearGradient id="Gradiente_sem_nome_12-4" data-name="Gradiente sem nome 12" x1="736.82" y1="174.74" x2="863.44" y2="174.74" xlink:href="#Gradiente_sem_nome_12"/>
    <linearGradient id="Gradiente_sem_nome_13" data-name="Gradiente sem nome 13" x1="526.06" y1="174.79" x2="663.14" y2="174.79" gradientUnits="userSpaceOnUse">
      <stop offset="0" stop-color="#222a50"/>
      <stop offset="1" stop-color="#222a50"/>
    </linearGradient>
  </defs>
  <g>
    <g>
      <path d="M2361.01,300.24c-1.31,0-2.5-.2-3.54-.59-1.05-.39-1.92-.91-2.61-1.56-.69-.65-1.27-1.44-1.72-2.36-.46-.92-.79-1.89-.99-2.89-.2-1.01-.3-2.08-.3-3.22v-10.77h3.36v10.77c0,.81.06,1.57.18,2.29.12.72.32,1.41.61,2.07.29.66.64,1.23,1.07,1.7.43.47.98.84,1.65,1.12.67.28,1.44.42,2.29.42s1.64-.14,2.32-.43c.68-.29,1.23-.67,1.66-1.15.43-.48.78-1.05,1.07-1.71.28-.66.48-1.35.59-2.05.11-.71.17-1.46.17-2.26v-10.77h3.39v10.77c0,1.49-.18,2.86-.53,4.11-.35,1.25-.88,2.37-1.6,3.36-.72.99-1.68,1.76-2.88,2.32-1.2.55-2.6.83-4.19.83"/>
      <polygon points="2383.99 285.07 2383.99 300.09 2380.64 300.09 2380.64 278.84 2383.39 278.84 2395.43 294.2 2395.43 278.87 2398.81 278.87 2398.81 300.09 2395.87 300.09 2383.99 285.07"/>
      <rect x="2409.58" y="278.84" width="3.35" height="21.25"/>
      <path d="M2429.84,278.84h3.17l8.26,21.25h-3.54l-2.24-5.77h-8.2l-2.22,5.77h-3.57l8.33-21.25ZM2429.45,274.87c-.31,0-.57.06-.79.2-.21.13-.37.29-.45.48-.09.19-.15.35-.18.47-.03.12-.04.22-.04.28h-1.86c0-.15.03-.35.09-.6.06-.25.17-.55.33-.88.16-.34.36-.65.58-.93.23-.29.54-.53.92-.73.38-.2.81-.3,1.28-.3.5,0,.97.11,1.42.33.45.22.88.44,1.29.66.41.22.81.33,1.21.33.27,0,.51-.05.72-.15.21-.1.37-.21.48-.34.11-.13.2-.27.27-.42.07-.15.11-.27.12-.36.01-.09.02-.16.02-.2h1.89c0,.13-.03.31-.1.56-.06.24-.18.54-.35.88-.17.34-.38.66-.62.95-.24.29-.57.54-.99.75-.41.21-.87.31-1.37.31s-1.01-.11-1.48-.32c-.47-.21-.9-.43-1.29-.64-.39-.21-.77-.32-1.12-.32M2434.84,291.83l-3.42-9.31-3.52,9.31h6.94Z"/>
      <path d="M2447.73,289.47c0-1.4.26-2.76.78-4.07.52-1.31,1.23-2.46,2.13-3.44.9-.98,1.98-1.77,3.26-2.37,1.28-.59,2.63-.89,4.06-.89s2.85.31,4.14.94c1.29.62,2.36,1.45,3.22,2.46.86,1.02,1.54,2.17,2.04,3.46.5,1.29.75,2.6.75,3.94,0,1.4-.26,2.76-.78,4.06-.52,1.31-1.23,2.45-2.11,3.43-.89.98-1.97,1.77-3.24,2.36-1.28.59-2.63.88-4.06.88-1.19,0-2.32-.2-3.39-.59-1.07-.39-2.01-.94-2.83-1.63-.81-.69-1.52-1.49-2.12-2.4-.6-.91-1.06-1.89-1.37-2.95-.31-1.06-.47-2.13-.47-3.21M2457.94,297.21c1.03,0,1.98-.22,2.85-.67.87-.45,1.58-1.04,2.13-1.78.56-.74.99-1.56,1.29-2.48.31-.92.46-1.86.46-2.82s-.16-1.97-.49-2.9c-.33-.93-.78-1.75-1.34-2.47-.57-.72-1.28-1.29-2.13-1.71-.85-.42-1.78-.64-2.77-.64s-1.99.22-2.86.67c-.87.44-1.59,1.03-2.16,1.76-.56.73-1,1.55-1.31,2.47-.31.92-.47,1.86-.47,2.82,0,1.34.27,2.6.81,3.77.54,1.17,1.34,2.12,2.39,2.86,1.05.74,2.25,1.11,3.6,1.11"/>
      <polygon points="2505.48 297.12 2505.48 300.09 2490.91 300.09 2490.91 278.84 2505.22 278.84 2505.22 281.81 2494.26 281.81 2494.26 287.84 2503.74 287.84 2503.74 290.63 2494.26 290.63 2494.26 297.12 2505.48 297.12"/>
      <path d="M2528.27,300.09v-21.25h9.25c.93,0,1.81.2,2.64.6.83.4,1.53.93,2.1,1.58.57.65,1.01,1.39,1.34,2.22.33.83.5,1.67.5,2.51,0,1.44-.38,2.75-1.14,3.91-.76,1.16-1.76,1.95-3.01,2.35l5,8.08h-3.77l-4.62-7.4h-4.94v7.4h-3.35ZM2531.62,289.73h5.88c.93,0,1.69-.39,2.3-1.16.6-.77.91-1.71.91-2.81s-.34-2.01-1.02-2.78c-.68-.78-1.47-1.16-2.37-1.16h-5.69v7.92Z"/>
      <polygon points="2568.6 297.12 2568.6 300.09 2554.03 300.09 2554.03 278.84 2568.34 278.84 2568.34 281.81 2557.38 281.81 2557.38 287.84 2566.86 287.84 2566.86 290.63 2557.38 290.63 2557.38 297.12 2568.6 297.12"/>
      <path d="M2586.58,278.72c1.86,0,3.5.42,4.9,1.26,1.41.84,2.47,1.97,3.18,3.37l-2.63,1.77c-.28-.61-.64-1.15-1.07-1.6-.43-.45-.9-.8-1.4-1.05-.51-.25-1.02-.43-1.53-.55-.51-.12-1.04-.18-1.57-.18-.86,0-1.66.15-2.4.44-.74.3-1.37.69-1.9,1.19-.53.5-.98,1.08-1.36,1.74-.38.66-.66,1.36-.84,2.09-.18.73-.27,1.47-.27,2.22,0,1.37.29,2.66.87,3.84.58,1.19,1.4,2.15,2.46,2.87,1.06.73,2.24,1.09,3.52,1.09.73,0,1.44-.11,2.14-.34.7-.23,1.37-.61,2.02-1.15.65-.54,1.15-1.21,1.5-1.99l2.79,1.58c-.42,1.01-1.1,1.91-2.05,2.67-.95.77-1.98,1.34-3.11,1.71-1.13.37-2.27.55-3.41.55-1.44,0-2.8-.32-4.08-.95-1.28-.63-2.36-1.47-3.23-2.5-.87-1.03-1.56-2.2-2.07-3.52-.51-1.31-.76-2.64-.76-3.98,0-1.03.15-2.06.44-3.08.29-1.02.73-1.98,1.32-2.88.59-.9,1.29-1.7,2.1-2.39.81-.69,1.77-1.24,2.88-1.65,1.11-.4,2.29-.61,3.55-.61"/>
      <path d="M2602.47,289.47c0-1.4.26-2.76.78-4.07.52-1.31,1.23-2.46,2.13-3.44.9-.98,1.98-1.77,3.26-2.37,1.28-.59,2.63-.89,4.06-.89s2.85.31,4.14.94c1.29.62,2.36,1.45,3.22,2.46.86,1.02,1.54,2.17,2.04,3.46.5,1.29.75,2.6.75,3.94,0,1.4-.26,2.76-.78,4.06-.52,1.31-1.23,2.45-2.11,3.43-.89.98-1.97,1.77-3.24,2.36-1.28.59-2.63.88-4.06.88-1.19,0-2.32-.2-3.39-.59-1.07-.39-2.01-.94-2.83-1.63-.81-.69-1.52-1.49-2.12-2.4-.6-.91-1.06-1.89-1.37-2.95-.31-1.06-.47-2.13-.47-3.21M2612.67,297.21c1.03,0,1.98-.22,2.85-.67.87-.45,1.58-1.04,2.13-1.78.56-.74.99-1.56,1.29-2.48.31-.92.46-1.86.46-2.82s-.16-1.97-.49-2.9c-.33-.93-.78-1.75-1.34-2.47-.57-.72-1.28-1.29-2.13-1.71-.85-.42-1.78-.64-2.77-.64s-1.99.22-2.86.67c-.87.44-1.59,1.03-2.16,1.76-.56.73-1,1.55-1.31,2.47-.31.92-.47,1.86-.47,2.82,0,1.34.27,2.6.81,3.77.54,1.17,1.34,2.12,2.39,2.86,1.05.74,2.25,1.11,3.6,1.11"/>
      <polygon points="2635.65 285.07 2635.65 300.09 2632.3 300.09 2632.3 278.84 2635.05 278.84 2647.09 294.2 2647.09 278.87 2650.47 278.87 2650.47 300.09 2647.53 300.09 2635.65 285.07"/>
      <path d="M2673.81,283.84c-.46-.51-1.24-.99-2.34-1.46-1.1-.47-2.24-.7-3.41-.7-1.38,0-2.42.26-3.11.77-.69.51-1.03,1.24-1.03,2.17,0,.29.04.56.12.79.08.23.18.44.3.62.12.18.3.35.55.52.24.17.48.31.72.42.24.12.56.24.98.37.41.13.8.24,1.16.34.36.09.83.21,1.42.36.94.22,1.73.45,2.4.67.66.22,1.3.5,1.91.83.61.34,1.1.71,1.48,1.13.37.41.66.92.88,1.51.22.59.33,1.27.33,2.03,0,.85-.13,1.61-.4,2.29-.27.68-.64,1.26-1.1,1.72-.47.47-1.03.86-1.7,1.18-.66.32-1.37.55-2.13.69-.76.14-1.58.21-2.46.21-1.62,0-3.18-.25-4.69-.74-1.51-.49-2.87-1.2-4.08-2.13l1.53-2.88c.61.63,1.61,1.24,3,1.83,1.39.59,2.82.88,4.29.88,1.33,0,2.35-.23,3.06-.7.72-.47,1.07-1.14,1.07-2.02,0-.35-.05-.67-.16-.95-.11-.28-.29-.54-.56-.77-.26-.23-.53-.43-.81-.59-.28-.17-.67-.34-1.18-.51-.51-.18-.98-.32-1.4-.44-.42-.12-1-.27-1.72-.45-1.12-.29-2.05-.59-2.78-.89-.73-.3-1.38-.67-1.94-1.11-.56-.44-.97-.96-1.22-1.56-.25-.6-.38-1.31-.38-2.13,0-1.02.2-1.95.59-2.77.4-.82.94-1.5,1.63-2.04.69-.54,1.51-.95,2.44-1.23.93-.28,1.95-.42,3.05-.42,2.61,0,5,.8,7.18,2.4l-1.52,2.75Z"/>
      <polygon points="2701.1 281.81 2694.04 281.81 2694.04 300.09 2690.65 300.09 2690.65 281.81 2683.56 281.81 2683.56 278.84 2701.1 278.84 2701.1 281.81"/>
      <path d="M2709.92,300.09v-21.25h9.25c.93,0,1.81.2,2.64.6.83.4,1.53.93,2.1,1.58.56.65,1.01,1.39,1.35,2.22.33.83.5,1.67.5,2.51,0,1.44-.38,2.75-1.14,3.91-.76,1.16-1.76,1.95-3.01,2.35l5,8.08h-3.77l-4.62-7.4h-4.94v7.4h-3.35ZM2713.27,289.73h5.88c.93,0,1.69-.39,2.3-1.16.6-.77.9-1.71.9-2.81s-.34-2.01-1.02-2.78c-.68-.78-1.47-1.16-2.37-1.16h-5.69v7.92Z"/>
      <path d="M2744.51,300.24c-1.31,0-2.5-.2-3.54-.59-1.05-.39-1.92-.91-2.61-1.56-.69-.65-1.27-1.44-1.72-2.36-.46-.92-.79-1.89-.99-2.89-.2-1.01-.3-2.08-.3-3.22v-10.77h3.36v10.77c0,.81.06,1.57.18,2.29.12.72.32,1.41.61,2.07.29.66.64,1.23,1.07,1.7.43.47.98.84,1.65,1.12.67.28,1.44.42,2.29.42s1.64-.14,2.32-.43c.68-.29,1.23-.67,1.66-1.15.43-.48.78-1.05,1.07-1.71.28-.66.48-1.35.59-2.05.11-.71.17-1.46.17-2.26v-10.77h3.39v10.77c0,1.49-.18,2.86-.53,4.11-.35,1.25-.88,2.37-1.6,3.36-.72.99-1.68,1.76-2.88,2.32-1.2.55-2.6.83-4.19.83"/>
      <path d="M2781.51,295.33c-.55,1.31-1.49,2.38-2.82,3.24-1.34.85-2.79,1.39-4.37,1.62,1.02.86,1.54,1.82,1.54,2.88,0,.86-.29,1.54-.86,2.05-.57.51-1.38.76-2.41.76-1.23,0-2.4-.29-3.52-.86l.83-1.77c.76.42,1.47.63,2.12.63.56,0,1.01-.12,1.32-.36.32-.24.48-.59.48-1.04,0-.78-.54-1.52-1.61-2.22-1.36-.11-2.62-.5-3.81-1.17-1.18-.67-2.18-1.52-2.99-2.53-.81-1.01-1.45-2.15-1.91-3.4-.46-1.26-.69-2.53-.69-3.81,0-1.03.15-2.06.44-3.08.29-1.02.73-1.98,1.32-2.88.59-.9,1.29-1.7,2.1-2.39.81-.69,1.77-1.24,2.88-1.64,1.11-.4,2.3-.61,3.55-.61,1.86,0,3.5.42,4.9,1.26,1.41.84,2.47,1.97,3.18,3.37l-2.63,1.77c-.28-.61-.64-1.15-1.07-1.6-.43-.45-.9-.8-1.4-1.05-.51-.25-1.02-.43-1.53-.55-.51-.12-1.04-.18-1.57-.18-.86,0-1.66.15-2.4.45-.74.3-1.37.69-1.9,1.19-.53.5-.98,1.08-1.36,1.74-.38.66-.66,1.36-.84,2.09-.18.73-.27,1.47-.27,2.22,0,1.37.29,2.66.87,3.84.58,1.19,1.4,2.15,2.46,2.87,1.06.73,2.24,1.09,3.52,1.09.73,0,1.44-.11,2.14-.34.7-.23,1.37-.61,2.02-1.15.65-.54,1.15-1.21,1.5-2l2.79,1.58Z"/>
      <path d="M2796.43,278.84h3.17l8.26,21.25h-3.54l-2.24-5.77h-8.2l-2.22,5.77h-3.57l8.33-21.25ZM2796.04,274.87c-.31,0-.57.06-.79.2-.21.13-.37.29-.45.48-.09.19-.15.35-.18.47-.03.12-.04.22-.04.28h-1.86c0-.15.03-.35.09-.6.06-.25.17-.55.33-.88.16-.34.36-.65.58-.93.23-.29.54-.53.92-.73.38-.2.81-.3,1.28-.3.5,0,.97.11,1.42.33.45.22.88.44,1.29.66.41.22.81.33,1.21.33.27,0,.51-.05.72-.15.21-.1.37-.21.48-.34.11-.13.2-.27.27-.42.07-.15.11-.27.12-.36.01-.09.02-.16.02-.2h1.89c0,.13-.03.31-.1.56-.06.24-.18.54-.35.88-.17.34-.38.66-.62.95-.24.29-.57.54-.99.75-.41.21-.87.31-1.37.31s-1.01-.11-1.48-.32c-.47-.21-.9-.43-1.29-.64-.39-.21-.77-.32-1.12-.32M2801.43,291.83l-3.42-9.31-3.52,9.31h6.94Z"/>
      <path d="M2814.33,289.47c0-1.4.26-2.76.78-4.07.52-1.31,1.23-2.46,2.13-3.44.9-.98,1.98-1.77,3.26-2.37,1.28-.59,2.63-.89,4.06-.89s2.85.31,4.14.94c1.29.62,2.36,1.45,3.22,2.46.86,1.02,1.54,2.17,2.04,3.46.5,1.29.75,2.6.75,3.94,0,1.4-.26,2.76-.78,4.06-.52,1.31-1.23,2.45-2.11,3.43-.89.98-1.97,1.77-3.24,2.36-1.28.59-2.63.88-4.06.88-1.19,0-2.32-.2-3.39-.59-1.07-.39-2.01-.94-2.83-1.63-.81-.69-1.52-1.49-2.12-2.4-.6-.91-1.06-1.89-1.37-2.95-.31-1.06-.47-2.13-.47-3.21M2824.53,297.21c1.03,0,1.98-.22,2.85-.67.87-.45,1.58-1.04,2.13-1.78.56-.74.99-1.56,1.29-2.48.31-.92.46-1.86.46-2.82s-.16-1.97-.49-2.9c-.33-.93-.77-1.75-1.34-2.47-.57-.72-1.28-1.29-2.13-1.71-.85-.42-1.78-.64-2.77-.64s-1.98.22-2.86.67c-.87.44-1.59,1.03-2.16,1.76-.56.73-1,1.55-1.31,2.47-.31.92-.47,1.86-.47,2.82,0,1.34.27,2.6.81,3.77.54,1.17,1.34,2.12,2.39,2.86,1.05.74,2.25,1.11,3.6,1.11"/>
    </g>
    <g>
      <polygon points="2465.58 189.5 2409.65 189.5 2409.65 245.94 2502.29 245.94 2465.58 189.5" style="fill: #4eac47;"/>
      <path d="M2346.13,245.94h20.85c23.57,0,42.67-19.1,42.67-42.67s-19.1-42.67-42.67-42.67h-65.48v85.34h44.63Z" style="fill: #e32726;"/>
      <path d="M2301.5,160.6h60.69c15.79,0,28.59-12.8,28.59-28.59s-12.8-28.59-28.59-28.59h-60.69v57.18Z" style="fill: #3253a0;"/>
      <polygon points="2560.07 103.42 2475.3 245.94 2644.83 245.94 2560.07 103.42" style="fill: #fecf09;"/>
      <rect x="2785.98" y="103.42" width="49.28" height="94.65" style="fill: #fecf09;"/>
      <rect x="2835.26" y="198.07" width="49.28" height="47.87" style="fill: #3253a0;"/>
      <rect x="2785.98" y="198.07" width="49.28" height="47.87" style="fill: #3d3d3d;"/>
      <rect x="2620.17" y="166.76" width="46.59" height="79.18" style="fill: #e32726;"/>
      <polygon points="2475.3 245.94 2502.29 245.94 2488.2 224.26 2475.3 245.94" style="fill: #3d3d3d;"/>
      <polygon points="2620.17 204.46 2620.17 245.94 2644.83 245.94 2620.17 204.46" style="fill: #3d3d3d;"/>
      <rect x="2728.38" y="103.42" width="49.28" height="142.52" style="fill: #4eac47;"/>
      <rect x="2301.5" y="103.42" width="49.28" height="57.18" style="fill: #4eac47;"/>
      <path d="M2450.67,189.5h14.91c23.77,0,43.04-19.27,43.04-43.04s-19.27-43.04-43.04-43.04h-55.93v86.08h41.01Z" style="fill: #3253a0;"/>
      <rect x="2666.75" y="103.42" width="53.32" height="51.83" style="fill: #3253a0;"/>
      <path d="M2683.03,155.24h-16.28v90.7h16.28c25.04,0,45.35-20.3,45.35-45.35s-20.3-45.35-45.35-45.35" style="fill: #fecf09;"/>
      <path d="M2651.84,103.42c-17.49,0-31.67,14.18-31.67,31.67s14.18,31.67,31.67,31.67h14.92v-63.34h-14.92Z" style="fill: #4eac47;"/>
      <rect x="2301.5" y="160.6" width="49.28" height="85.34" style="fill: #fecf09;"/>
      <polygon points="2465.58 189.5 2409.65 103.42 2409.65 189.5 2465.58 189.5" style="fill: #fecf09;"/>
      <path d="M2612.06,245.94c0-28.72-23.28-51.99-51.99-51.99s-51.99,23.28-51.99,51.99h103.99Z" style="fill: #3253a0;"/>
    </g>
    <g>
      <path d="M2378.76,58.69v2.11c0,8.44-5.65,13.93-13.13,13.93-7.96,0-14.21-6.21-14.21-14.13s6.29-14.21,14.17-14.21c4.97,0,9.55,2.55,12.06,6.72l-6.21,3.7c-1.19-2.15-3.38-3.38-5.93-3.38-3.98,0-6.81,3.06-6.81,7.2s2.83,7,6.92,7c2.87,0,4.7-1.43,5.33-3.18h-7.28v-5.77h15.08Z"/>
      <path d="M2388.78,60.56c0-7.88,6.29-14.17,14.21-14.17s14.13,6.29,14.13,14.17-6.29,14.17-14.13,14.17-14.21-6.29-14.21-14.17M2409.28,60.56c0-3.82-2.75-6.69-6.29-6.69s-6.41,2.87-6.41,6.69,2.79,6.69,6.41,6.69,6.29-2.87,6.29-6.69"/>
      <polygon points="2452.33 47.03 2441.75 74.09 2434.46 74.09 2424 47.03 2431.84 47.03 2438.13 63.7 2444.49 47.03 2452.33 47.03"/>
      <polygon points="2469.16 53.64 2469.16 57.66 2477.12 57.66 2477.12 63.46 2469.16 63.46 2469.16 67.48 2481.22 67.48 2481.22 74.09 2461.84 74.09 2461.84 47.03 2481.22 47.03 2481.22 53.64 2469.16 53.64"/>
      <path d="M2502.75,64.74h-3.06v9.35h-7.2v-27.06h13.09c5.29,0,9.35,3.78,9.35,8.79,0,3.46-1.87,6.33-4.74,7.84l6.01,10.43h-8.08l-5.37-9.35ZM2499.68,58.57h5.09c1.71,0,2.78-1.19,2.78-2.51s-1.03-2.55-2.78-2.55h-5.09v5.05Z"/>
      <polygon points="2550.5 47.03 2550.5 74.09 2544.33 74.09 2533.43 59.84 2533.43 74.09 2526.22 74.09 2526.22 47.03 2532.35 47.03 2543.3 61.32 2543.3 47.03 2550.5 47.03"/>
      <path d="M2561,60.56c0-7.88,6.29-14.17,14.21-14.17s14.13,6.29,14.13,14.17-6.29,14.17-14.13,14.17-14.21-6.29-14.21-14.17M2581.5,60.56c0-3.82-2.75-6.69-6.29-6.69s-6.41,2.87-6.41,6.69,2.79,6.69,6.41,6.69,6.29-2.87,6.29-6.69"/>
      <polygon points="2625.07 53.52 2625.07 58.09 2633.03 58.09 2633.03 64.22 2625.07 64.22 2625.07 74.09 2617.75 74.09 2617.75 47.03 2637.13 47.03 2637.13 53.52 2625.07 53.52"/>
      <polygon points="2655.39 53.64 2655.39 57.66 2663.35 57.66 2663.35 63.46 2655.39 63.46 2655.39 67.48 2667.45 67.48 2667.45 74.09 2648.07 74.09 2648.07 47.03 2667.45 47.03 2667.45 53.64 2655.39 53.64"/>
      <path d="M2704.18,60.56c0,7.76-6.21,13.53-14.45,13.53h-11.02v-27.06h11.02c8.24,0,14.45,5.77,14.45,13.53M2696.62,60.56c0-3.94-2.95-6.49-7.24-6.49h-3.3v12.97h3.3c4.3,0,7.24-2.55,7.24-6.49"/>
      <polygon points="2722.01 53.64 2722.01 57.66 2729.96 57.66 2729.96 63.46 2722.01 63.46 2722.01 67.48 2734.06 67.48 2734.06 74.09 2714.68 74.09 2714.68 47.03 2734.06 47.03 2734.06 53.64 2722.01 53.64"/>
      <path d="M2755.59,64.74h-3.07v9.35h-7.2v-27.06h13.09c5.29,0,9.35,3.78,9.35,8.79,0,3.46-1.87,6.33-4.74,7.84l6.01,10.43h-8.08l-5.37-9.35ZM2752.53,58.57h5.09c1.71,0,2.79-1.19,2.79-2.51s-1.04-2.55-2.79-2.55h-5.09v5.05Z"/>
      <path d="M2797.21,69.43h-10.7l-1.87,4.66h-7.6l11.3-27.06h6.92l11.42,27.06h-7.56l-1.91-4.66ZM2794.55,62.99l-2.71-6.65-2.71,6.65h5.41Z"/>
      <polygon points="2835.26 67.13 2835.26 74.09 2816.19 74.09 2816.19 47.03 2823.88 47.03 2823.88 67.13 2835.26 67.13"/>
      <path d="M2378.76,58.69v2.11c0,8.44-5.65,13.93-13.13,13.93-7.96,0-14.21-6.21-14.21-14.13s6.29-14.21,14.17-14.21c4.97,0,9.55,2.55,12.06,6.72l-6.21,3.7c-1.19-2.15-3.38-3.38-5.93-3.38-3.98,0-6.81,3.06-6.81,7.2s2.83,7,6.92,7c2.87,0,4.7-1.43,5.33-3.18h-7.28v-5.77h15.08Z"/>
      <path d="M2388.78,60.56c0-7.88,6.29-14.17,14.21-14.17s14.13,6.29,14.13,14.17-6.29,14.17-14.13,14.17-14.21-6.29-14.21-14.17M2409.28,60.56c0-3.82-2.75-6.69-6.29-6.69s-6.41,2.87-6.41,6.69,2.79,6.69,6.41,6.69,6.29-2.87,6.29-6.69"/>
      <polygon points="2452.33 47.03 2441.75 74.09 2434.46 74.09 2424 47.03 2431.84 47.03 2438.13 63.7 2444.49 47.03 2452.33 47.03"/>
      <polygon points="2469.16 53.64 2469.16 57.66 2477.12 57.66 2477.12 63.46 2469.16 63.46 2469.16 67.48 2481.22 67.48 2481.22 74.09 2461.84 74.09 2461.84 47.03 2481.22 47.03 2481.22 53.64 2469.16 53.64"/>
      <path d="M2502.75,64.74h-3.06v9.35h-7.2v-27.06h13.09c5.29,0,9.35,3.78,9.35,8.79,0,3.46-1.87,6.33-4.74,7.84l6.01,10.43h-8.08l-5.37-9.35ZM2499.68,58.57h5.09c1.71,0,2.78-1.19,2.78-2.51s-1.03-2.55-2.78-2.55h-5.09v5.05Z"/>
      <polygon points="2550.5 47.03 2550.5 74.09 2544.33 74.09 2533.43 59.84 2533.43 74.09 2526.22 74.09 2526.22 47.03 2532.35 47.03 2543.3 61.32 2543.3 47.03 2550.5 47.03"/>
      <path d="M2561,60.56c0-7.88,6.29-14.17,14.21-14.17s14.13,6.29,14.13,14.17-6.29,14.17-14.13,14.17-14.21-6.29-14.21-14.17M2581.5,60.56c0-3.82-2.75-6.69-6.29-6.69s-6.41,2.87-6.41,6.69,2.79,6.69,6.41,6.69,6.29-2.87,6.29-6.69"/>
      <polygon points="2625.07 53.52 2625.07 58.09 2633.03 58.09 2633.03 64.22 2625.07 64.22 2625.07 74.09 2617.75 74.09 2617.75 47.03 2637.13 47.03 2637.13 53.52 2625.07 53.52"/>
      <polygon points="2655.39 53.64 2655.39 57.66 2663.35 57.66 2663.35 63.46 2655.39 63.46 2655.39 67.48 2667.45 67.48 2667.45 74.09 2648.07 74.09 2648.07 47.03 2667.45 47.03 2667.45 53.64 2655.39 53.64"/>
      <path d="M2704.18,60.56c0,7.76-6.21,13.53-14.45,13.53h-11.02v-27.06h11.02c8.24,0,14.45,5.77,14.45,13.53M2696.62,60.56c0-3.94-2.95-6.49-7.24-6.49h-3.3v12.97h3.3c4.3,0,7.24-2.55,7.24-6.49"/>
      <polygon points="2722.01 53.64 2722.01 57.66 2729.96 57.66 2729.96 63.46 2722.01 63.46 2722.01 67.48 2734.06 67.48 2734.06 74.09 2714.68 74.09 2714.68 47.03 2734.06 47.03 2734.06 53.64 2722.01 53.64"/>
      <path d="M2755.59,64.74h-3.07v9.35h-7.2v-27.06h13.09c5.29,0,9.35,3.78,9.35,8.79,0,3.46-1.87,6.33-4.74,7.84l6.01,10.43h-8.08l-5.37-9.35ZM2752.53,58.57h5.09c1.71,0,2.79-1.19,2.79-2.51s-1.04-2.55-2.79-2.55h-5.09v5.05Z"/>
      <path d="M2797.21,69.43h-10.7l-1.87,4.66h-7.6l11.3-27.06h6.92l11.42,27.06h-7.56l-1.91-4.66ZM2794.55,62.99l-2.71-6.65-2.71,6.65h5.41Z"/>
      <polygon points="2835.26 67.13 2835.26 74.09 2816.19 74.09 2816.19 47.03 2823.88 47.03 2823.88 67.13 2835.26 67.13"/>
    </g>
  </g>
  <g>
    <text transform="translate(1811.43 131.94)" style="font-size: 40px;"><tspan style="font-family: Rawline-SemiBold, Rawline; font-weight: 600; letter-spacing: .2em;"><tspan x="0" y="0">MINISTÉRIO DO</tspan></tspan><tspan style="font-family: Rawline-Black, Rawline; font-weight: 800;"><tspan x="-13.78" y="57" style="letter-spacing: .2em;">PLANE</tspan><tspan x="155.23" y="57" style="letter-spacing: .18em;">J</tspan><tspan x="182.41" y="57" style="letter-spacing: .2em;">AMEN</tspan><tspan x="329.25" y="57" style="letter-spacing: .19em;">T</tspan><tspan x="361.74" y="57" style="letter-spacing: .2em;">O</tspan></tspan><tspan style="font-family: Rawline-Black, Rawline; font-weight: 800;"><tspan x="25.14" y="114" style="letter-spacing: .2em;">E O</tspan><tspan x="112.58" y="114" style="letter-spacing: .19em;">R</tspan><tspan x="147.22" y="114" style="letter-spacing: .19em;">Ç</tspan><tspan x="182.41" y="114" style="letter-spacing: .2em;">AMEN</tspan><tspan x="329.25" y="114" style="letter-spacing: .19em;">T</tspan><tspan x="361.74" y="114" style="letter-spacing: .2em;">O</tspan></tspan></text>
    <text transform="translate(1305.05 131.94)" style="font-size: 40px;"><tspan style="font-family: Rawline-SemiBold, Rawline; font-weight: 600;"><tspan x="0" y="0" style="letter-spacing: .2em;">S</tspan><tspan x="32.43" y="0" style="letter-spacing: .19em;">E</tspan><tspan x="64.01" y="0" style="letter-spacing: .2em;">CRE</tspan><tspan x="165.88" y="0" style="letter-spacing: .13em;">T</tspan><tspan x="195.83" y="0" style="letter-spacing: .2em;">ARI</tspan><tspan x="284.13" y="0" style="letter-spacing: .17em;">A</tspan><tspan x="317.89" y="0" xml:space="preserve" style="letter-spacing: .2em;"> DE</tspan></tspan><tspan style="font-family: Rawline-Black, Rawline; font-weight: 800;"><tspan x="-342.97" y="57" style="letter-spacing: .19em;">A</tspan><tspan x="-308.6" y="57" style="letter-spacing: .2em;">SSUN</tspan><tspan x="-167.4" y="57" style="letter-spacing: .19em;">T</tspan><tspan x="-134.91" y="57" style="letter-spacing: .19em;">O</tspan><tspan x="-96.56" y="57" style="letter-spacing: .2em;">S INTERN</tspan><tspan x="149.88" y="57" style="letter-spacing: .17em;">A</tspan><tspan x="183.41" y="57" style="letter-spacing: .2em;">CIONAIS</tspan></tspan><tspan style="font-family: Rawline-Black, Rawline; font-weight: 800;"><tspan x="-154.81" y="114" style="letter-spacing: .2em;">E DESEN</tspan><tspan x="65.23" y="114" style="letter-spacing: .17em;">V</tspan><tspan x="98.99" y="114" style="letter-spacing: .2em;">O</tspan><tspan x="137.58" y="114" style="letter-spacing: .12em;">L</tspan><tspan x="165.7" y="114" style="letter-spacing: .2em;">VIMEN</tspan><tspan x="333.41" y="114" style="letter-spacing: .19em;">T</tspan><tspan x="365.9" y="114" style="letter-spacing: .2em;">O</tspan></tspan></text>
  </g>
  <g>
    <g>
      <path d="M286.01,82.15c-9.91-15.51-60.33,4.68-95.89,24.3-13.26,7.32-38.72,24.21-44.49,28.13-28.47,19.37-56.16,44.42-66.97,63.79-2.81,5.04-5.9,13.18-2.95,17.84.06.1,1.12,1.68,3.41,5.25,4.84,7.56,10.48,16.25,12.12,18.8.41-1.01,6.26-18.7,16.12-29.33,16.97-18.28,44.69-42.05,76.35-61.21,31.66-19.15,46.48-28.24,70.52-36.72,12.92-4.55,41.78-14.19,49.84-2.88-6.53-10.02-13.66-21.09-18.06-27.98Z" style="fill: url(#Gradiente_sem_nome_6);"/>
      <circle cx="197.44" cy="184.23" r="88.68" style="fill: url(#Gradiente_sem_nome_9);"/>
      <path d="M215.85,97.62c-1.53-.16-1.65.45-.9,2.75,2.38,7.34-7.82,9.1-13.25,12.73-3.2,1.36-7.54,5.67-10.85,2.85-1.27-2.01-.61-4.68-1.95-6.86-.93-1.74-3.07-2.54-4.97-2.3-3.85.52-4.8,5.06-7.73,6.76-7.82,1.04-8.97,18.86-14.28,16.02-2.74-1.47-8.76,3.87-9.37,5.52-1.44,3.94,6.44,11.29,6.89,17.57-.29,3.92-5.03,5.47-6.31,9.1-3.74,6.47-2.53,18.46,7.07,18.49,3.05.01,3.74-5.74,5.86-4.16,5,3.72,9.08,7.32,13.4,1.86,2.14-1.96,2.95-6.49,5.77-6.58,1.39-.05,1.75,1.57,2.51,2.8,4.81,7.65,18.38-.75,22.8,6.61,2.43,4.04,3.56,9.02,9.15,5.89,4.73-2.19,5.93,7.07,7.71,9.57,2.17,3.04,6.77,4.43,12.48,8.22,1.63,1.08,5.79,3.8,6.5,4.38,2.1,1.73,5.88,5.49,1.93,10.73-5.89,6.34-7.47,17.65,3.83,14.18,3.79-1.16,8.78.88,8.79,4.39,0,2.8-.94,9.59,4.67,2.85,24.92-29.97,25.48-66.12,11.28-97.76-11.01-24.53-42.58-43.64-61.02-45.63Z" style="fill: url(#Gradiente_sem_nome_27);"/>
      <path d="M277.67,145.12c-12.24,19.87-36.91,41.71-59.38,57.34-33.72,23.46-73.19,42.27-95.19,46.27-14.95,2.72-25.07,2.25-28.92-3.75-.18-.31-14.98-23.32-17.97-28.02,2.19,2.04,3.91,9.4,30.49,3.34,17.1-3.9,51.11-18.47,78.67-36.69,29.77-19.68,58.56-43.18,72.87-64.06,6.96,3.98,16.7,18.3,19.43,25.57Z" style="fill: url(#Gradiente_sem_nome_20);"/>
    </g>
    <g>
      <path d="M398.91,186.21c-1.85-4.1-4.31-7.56-7.37-10.39-3.06-2.83-6.54-5.17-10.44-7.03-3.9-1.85-7.89-3.48-11.96-4.88-4.07-1.4-8.05-2.72-11.96-3.95-3.9-1.24-7.39-2.64-10.44-4.2-3.06-1.56-5.51-3.45-7.37-5.66-1.85-2.21-2.78-4.98-2.78-8.3,0-2.6.45-4.99,1.37-7.17.91-2.18,2.29-4.05,4.15-5.61,1.85-1.56,4.13-2.78,6.83-3.66,2.7-.88,5.87-1.32,9.52-1.32,4.03,0,7.53.5,10.49,1.51,2.96,1.01,5.55,2.13,7.76,3.37,2.21,1.24,4.13,2.36,5.76,3.37.15.09.29.16.44.25l3.93,2.57c1.22.79,2.86.36,3.53-.93l1.59-3.03c.26-.38.51-.78.74-1.25l5.56-10.7c.52-1,.32-2.24-.53-2.98-4.66-4.07-10.18-7.29-16.55-9.65-7.03-2.6-14.71-3.9-23.03-3.9-7.35,0-13.89,1.14-19.62,3.42-5.73,2.28-10.56,5.3-14.49,9.08-3.94,3.77-6.93,8.1-8.98,12.98-2.05,4.88-3.07,9.89-3.07,15.03,0,6.44.93,11.86,2.78,16.25,1.85,4.39,4.31,8.05,7.37,10.98,3.06,2.93,6.54,5.3,10.44,7.13,3.9,1.82,7.87,3.38,11.91,4.69,4.03,1.3,8,2.51,11.91,3.61,3.9,1.11,7.38,2.46,10.44,4.05,3.06,1.6,5.51,3.56,7.37,5.9,1.85,2.34,2.78,5.37,2.78,9.08,0,6.64-2.05,11.73-6.15,15.27-4.1,3.55-9.89,5.32-17.37,5.32-4.88,0-9.06-.67-12.54-2-3.48-1.33-6.51-2.81-9.08-4.44-2.57-1.63-4.8-3.11-6.69-4.44-.2-.14-.4-.25-.6-.37l-4.46-3.33c-1.17-.86-2.83-.53-3.59.71l-2.53,4.16s-.03.03-.05.05l-6.6,10.92c-.59.98-.45,2.26.38,3.05,2.38,2.26,5.02,4.34,7.93,6.24,3.48,2.28,7.22,4.23,11.22,5.86,4,1.63,8.18,2.88,12.54,3.76,4.36.88,8.78,1.32,13.27,1.32,7.81,0,14.74-1.19,20.79-3.56,6.05-2.38,11.18-5.63,15.37-9.76,4.2-4.13,7.38-8.98,9.56-14.54,2.18-5.56,3.27-11.53,3.27-17.91,0-5.86-.93-10.83-2.78-14.93Z" style="fill: url(#Gradiente_sem_nome_12);"/>
      <path d="M511.87,106.3v15.38c0,1.58-1.28,2.86-2.86,2.86h-57.49c-1.58,0-2.86,1.28-2.86,2.86v33.82c0,1.58,1.28,2.86,2.86,2.86h44.08c1.58,0,2.86,1.28,2.86,2.86v14.69c0,1.58-1.28,2.86-2.86,2.86h-44.08c-1.58,0-2.86,1.28-2.86,2.86v34.61c0,1.58,1.28,2.86,2.86,2.86h57.49c1.58,0,2.86,1.28,2.86,2.86v15.48c0,1.58-1.28,2.86-2.86,2.86h-84.21c-1.58,0-2.86-1.28-2.86-2.86V106.3c0-1.58,1.28-2.86,2.86-2.86h84.21c1.58,0,2.86,1.28,2.86,2.86Z" style="fill: url(#Gradiente_sem_nome_12-2);"/>
      <path d="M701.9,246.04h-20.9c-1.58,0-2.86-1.28-2.86-2.86V106.3c0-1.58,1.28-2.86,2.86-2.86h20.9c1.58,0,2.86,1.28,2.86,2.86v136.88c0,1.58-1.28,2.86-2.86,2.86Z" style="fill: url(#Gradiente_sem_nome_12-3);"/>
      <path d="M863.44,174.74c0,10.45-1.74,20.05-5.23,28.8-3.49,8.74-8.38,16.27-14.69,22.58-6.31,6.31-13.91,11.21-22.78,14.69-8.88,3.49-18.71,5.23-29.49,5.23h-51.57c-1.58,0-2.86-1.28-2.86-2.86V106.3c0-1.58,1.28-2.86,2.86-2.86h51.57c10.78,0,20.61,1.76,29.49,5.28,8.88,3.52,16.47,8.42,22.78,14.69,6.31,6.28,11.21,13.79,14.69,22.53,3.48,8.74,5.23,18.34,5.23,28.8ZM836.32,174.74c0-7.82-1.05-14.84-3.16-21.05-2.1-6.21-5.09-11.47-8.97-15.78-3.88-4.31-8.6-7.61-14.15-9.91-5.56-2.3-11.82-3.45-18.79-3.45h-24.85c-1.58,0-2.86,1.28-2.86,2.86v94.67c0,1.58,1.28,2.86,2.86,2.86h24.85c6.97,0,13.23-1.15,18.79-3.45,5.55-2.3,10.27-5.6,14.15-9.91,3.88-4.31,6.87-9.57,8.97-15.78,2.1-6.21,3.16-13.23,3.16-21.05Z" style="fill: url(#Gradiente_sem_nome_12-4);"/>
    </g>
    <path d="M662.98,243.08l-54.29-138.21c-.32-.83-1.12-1.37-2.01-1.37h-24.16c-.89,0-1.69.54-2.01,1.37l-54.29,138.21c-.56,1.42.49,2.95,2.01,2.95h14.41l-.06.05h8.09c.91,0,1.72-.56,2.03-1.41l1.59-4.33c.04-.11.1-.21.14-.32l10.13-27.66c.31-.85,1.12-1.42,2.03-1.42h56.02c.91,0,1.72.57,2.03,1.42l10.13,27.66c.08.2.18.38.26.57l1.48,4.02c.31.85,1.12,1.41,2.03,1.41h4.93c.06,0,.11.01.17.01h17.33c1.52,0,2.57-1.53,2.01-2.95ZM574.98,192.21c-1.5,0-2.55-1.5-2.03-2.91l16.28-44.31c.85-2.17,1.72-4.7,2.61-7.59.22-.72.44-1.46.67-2.21.61-2.05,3.49-2.07,4.14-.03.24.75.47,1.48.71,2.19.95,2.86,1.82,5.34,2.61,7.44l16.29,44.51c.52,1.41-.53,2.9-2.03,2.9h-39.25Z" style="fill: url(#Gradiente_sem_nome_13);"/>
  </g>
</svg>